<svg width="190" height="30" viewBox="0 0 190 30" fill="none" xmlns="http://www.w3.org/2000/svg">
<g clip-path="url(#clip0_0_169)">
<path d="M23.4062 0.344971L26.9984 11.4007H38.6231L29.2185 18.2335L32.8108 29.2892L23.4062 22.4564L14.0017 29.2892L17.5939 18.2335L8.18933 11.4007H19.814L23.4062 0.344971Z" fill="#1C1C33"/>
</g>
<g clip-path="url(#clip1_0_169)">
<path d="M95.4062 0.344971L98.9984 11.4007H110.623L101.219 18.2335L104.811 29.2892L95.4062 22.4564L86.0017 29.2892L89.5939 18.2335L80.1893 11.4007H91.814L95.4062 0.344971Z" fill="#1C1C33"/>
</g>
<g clip-path="url(#clip2_0_169)">
<path d="M167.406 0.344971L170.998 11.4007H182.623L173.219 18.2335L176.811 29.2892L167.406 22.4564L158.002 29.2892L161.594 18.2335L152.189 11.4007H163.814L167.406 0.344971Z" fill="#1C1C33"/>
</g>
<g clip-path="url(#clip3_0_169)">
<path d="M59.4062 0.344971L62.9984 11.4007H74.6231L65.2185 18.2335L68.8108 29.2892L59.4062 22.4564L50.0017 29.2892L53.5939 18.2335L44.1893 11.4007H55.814L59.4062 0.344971Z" fill="#1C1C33"/>
</g>
<g clip-path="url(#clip4_0_169)">
<path d="M131.406 0.344971L134.998 11.4007H146.623L137.219 18.2335L140.811 29.2892L131.406 22.4564L122.002 29.2892L125.594 18.2335L116.189 11.4007H127.814L131.406 0.344971Z" fill="#1C1C33"/>
</g>
<defs>
<clipPath id="clip0_0_169">
<rect width="32" height="29" fill="white" transform="translate(7.40625 0.34375)"/>
</clipPath>
<clipPath id="clip1_0_169">
<rect width="32" height="29" fill="white" transform="translate(79.4062 0.34375)"/>
</clipPath>
<clipPath id="clip2_0_169">
<rect width="32" height="29" fill="white" transform="translate(151.406 0.34375)"/>
</clipPath>
<clipPath id="clip3_0_169">
<rect width="32" height="29" fill="white" transform="translate(43.4062 0.34375)"/>
</clipPath>
<clipPath id="clip4_0_169">
<rect width="32" height="29" fill="white" transform="translate(115.406 0.34375)"/>
</clipPath>
</defs>
</svg>
